<?xml version="1.0" standalone="no"?>
<!DOCTYPE svg PUBLIC "-//W3C//DTD SVG 20010904//EN"
 "http://www.w3.org/TR/2001/REC-SVG-20010904/DTD/svg10.dtd">
<svg version="1.0" xmlns="http://www.w3.org/2000/svg"
 width="498.000000pt" height="499.000000pt" viewBox="0 0 548.000000 549.000000"
 preserveAspectRatio="xMidYMid meet">
<defs>
<linearGradient id="grad1" x1="0%" y1="0%" x2="50%" y2="50%">
<stop offset="0%" style="stop-color:rgb(255, 120, 105);stop-opacity:1;" />
<stop offset="100%" style="stop-color:rgb(255, 100, 85);stop-opacity:0.7;"/>
</linearGradient>
<linearGradient id="grad2" x1="0%" y1="0%" x2="50%" y2="50%">
<stop offset="0%" style="stop-color:rgb(255, 100, 85);stop-opacity:1;" />
<stop offset="100%" style="stop-color:rgb(255, 80, 65);stop-opacity:0.7;"/>
</linearGradient>
</defs>
<g transform="translate(0.000000,499.000000) scale(0.100000,-0.100000)"
fill="url(#grad1)" stroke="none">
<path d="M2435 4980 c-664 -5 -642 -4 -730 -58 -59 -36 -93 -71 -125 -127 -41
-73 -50 -135 -50 -340 l0 -185 -765 0 -765 0 0 -175 0 -175 288 -2 287 -3 2
-1045 c2 -575 4 -1398 5 -1830 l3 -785 27 -50 c34 -65 114 -139 186 -173 l57
-27 1595 -3 c1165 -2 1611 0 1655 8 121 24 218 97 272 208 l28 57 3 1823 2
1822 285 0 285 0 0 175 0 175 -764 0 -764 0 -4 223 -3 222 -29 58 c-57 111
-172 190 -297 205 -35 4 -343 5 -684 2z m630 -530 l0 -175 -572 -3 -573 -2 0
180 0 180 573 -2 572 -3 0 -175z m963 -2313 l2 -1777 -1535 0 -1535 0 0 1780
0 1780 1533 -2 1532 -3 3 -1778z"/>
<path d="M1530 2135 l0 -1245 195 0 195 0 0 1245 0 1245 -195 0 -195 0 0
-1245z"/>
<path d="M2300 2135 l0 -1245 193 0 192 0 -3 1245 -2 1245 -190 0 -190 0 0
-1245z"/>
<path d="M3070 2135 l0 -1245 190 0 190 0 0 1245 0 1245 -190 0 -190 0 0
-1245z"/>
</g>

<g transform="translate(5.000000,505.000000) scale(0.100000,-0.100000)"
fill="url(#grad2)" stroke="none">
<path d="M2435 4980 c-664 -5 -642 -4 -730 -58 -59 -36 -93 -71 -125 -127 -41
-73 -50 -135 -50 -340 l0 -185 -765 0 -765 0 0 -175 0 -175 288 -2 287 -3 2
-1045 c2 -575 4 -1398 5 -1830 l3 -785 27 -50 c34 -65 114 -139 186 -173 l57
-27 1595 -3 c1165 -2 1611 0 1655 8 121 24 218 97 272 208 l28 57 3 1823 2
1822 285 0 285 0 0 175 0 175 -764 0 -764 0 -4 223 -3 222 -29 58 c-57 111
-172 190 -297 205 -35 4 -343 5 -684 2z m630 -530 l0 -175 -572 -3 -573 -2 0
180 0 180 573 -2 572 -3 0 -175z m963 -2313 l2 -1777 -1535 0 -1535 0 0 1780
0 1780 1533 -2 1532 -3 3 -1778z"/>
<path d="M1530 2135 l0 -1245 195 0 195 0 0 1245 0 1245 -195 0 -195 0 0
-1245z"/>
<path d="M2300 2135 l0 -1245 193 0 192 0 -3 1245 -2 1245 -190 0 -190 0 0
-1245z"/>
<path d="M3070 2135 l0 -1245 190 0 190 0 0 1245 0 1245 -190 0 -190 0 0
-1245z"/>
</g>

</svg>
